<?xml version="1.0" encoding="UTF-8"?>
<svg width="100%" height="100%" xmlns="http://www.w3.org/2000/svg">
  <style>
    .bar { stroke: #333; stroke-width: 1; }
    .axis { stroke: #333; stroke-width: 1; }
    .label { font-family: Arial, sans-serif; font-size: 12px; }
    .title { font-family: Arial, sans-serif; font-size: 16px; font-weight: bold; }
  </style>

  <!-- Título del gráfico -->
  <text x="200" y="30" text-anchor="middle" class="title">Histograma - Horizontal</text>

  <!-- +20(eje Y) -->
  <text x="50" y="351.25" text-anchor="middle" class="label">0</text>
  <text x="70" y="351.25" text-anchor="middle" class="label">1</text>
  <text x="90" y="351.25" text-anchor="middle" class="label">2</text>
  <text x="110" y="351.25" text-anchor="middle" class="label">3</text>
  <text x="130" y="351.25" text-anchor="middle" class="label">4</text>
  <text x="150" y="351.25" text-anchor="middle" class="label">5</text>
  <text x="170" y="351.25" text-anchor="middle" class="label">6</text>
  <text x="190" y="351.25" text-anchor="middle" class="label">7</text>
  <text x="210" y="351.25" text-anchor="middle" class="label">8</text>
  <text x="230" y="351.25" text-anchor="middle" class="label">9</text>
  <text x="250" y="351.25" text-anchor="middle" class="label">10</text>
  <text x="270" y="351.25" text-anchor="middle" class="label">11</text>
  <text x="290" y="351.25" text-anchor="middle" class="label">12</text>
  <text x="310" y="351.25" text-anchor="middle" class="label">13</text>
  <text x="330" y="351.25" text-anchor="middle" class="label">14</text>
  <text x="350" y="351.25" text-anchor="middle" class="label">15</text>

  <!-- Mirando el eje Y, del 50 al 250 hay 200 de diferencia, la mitad es 100, como arranca en 50, en 150
       quedaria centrado verticalmente -->
  <!-- +40Y (225 + 40 = 265) -->
  <text x="200" y="371.25" text-anchor="middle" class="label">Frecuencia de palabras</text>

  <!-- Eje X -->
  <line x1="50" y1="331.25" x2="350" y2="331.25" class="axis" />

  <!-- Eje Y -->
  <line x1="50" y1="50" x2="50" y2="331.25" class="axis" />

  <!-- Barras  | +18.75(eje Y | 12.5 ... 6.25)-->
  <rect x="50" y="50" width="20" height="12.5" rx="5" class="bar" fill="#FBBC05" />
  <rect x="50" y="68.75" width="40" height="12.5" rx="5" class="bar" fill="#FBBC05" />
  <rect x="50" y="87.5" width="60" height="12.5" rx="5" class="bar" fill="#FBBC05" />
  <rect x="50" y="106.25" width="80" height="12.5" rx="5" class="bar" fill="#FBBC05" />
  <rect x="50" y="125" width="100" height="12.5" rx="5" class="bar" fill="#FBBC05" />
  <rect x="50" y="143.75" width="120" height="12.5" rx="5" class="bar" fill="#FBBC05" />
  <rect x="50" y="162.5" width="140" height="12.5" rx="5" class="bar" fill="#FBBC05" />
  <rect x="50" y="181.25" width="160" height="12.5" rx="5" class="bar" fill="#FBBC05" />
  <rect x="50" y="200" width="180" height="12.5" rx="5" class="bar" fill="#FBBC05" />
  <rect x="50" y="218.75" width="200" height="12.5" rx="5" class="bar" fill="#FBBC05" />
  <rect x="50" y="237.5" width="220" height="12.5" rx="5" class="bar" fill="#FBBC05" />
  <rect x="50" y="256.25" width="240" height="12.5" rx="5" class="bar" fill="#FBBC05" />
  <rect x="50" y="275" width="260" height="12.5" rx="5" class="bar" fill="#FBBC05" />
  <rect x="50" y="293.75" width="280" height="12.5" rx="5" class="bar" fill="#FBBC05" />
  <rect x="50" y="312.5" width="300" height="12.5" rx="5" class="bar" fill="#FBBC05" />

  <!-- Etiquetas de las barras +18.75Y-->
  <text x="45" y="56.25" text-anchor="end" dy="0.35em" class="label">15</text>
  <text x="45" y="75" text-anchor="end" dy="0.35em" class="label">14</text>
  <text x="45" y="93.75" text-anchor="end" dy="0.35em" class="label">13</text>
  <text x="45" y="112.5" text-anchor="end" dy="0.35em" class="label">12</text>
  <text x="45" y="131.25" text-anchor="end" dy="0.35em" class="label">11</text>
  <text x="45" y="150" text-anchor="end" dy="0.35em" class="label">10</text>
  <text x="45" y="168.75" text-anchor="end" dy="0.35em" class="label">9</text>
  <text x="45" y="187.5" text-anchor="end" dy="0.35em" class="label">8</text>
  <text x="45" y="206.25" text-anchor="end" dy="0.35em" class="label">7</text>
  <text x="45" y="225" text-anchor="end" dy="0.35em" class="label">6</text>
  <text x="45" y="243.75" text-anchor="end" dy="0.35em" class="label">5</text>
  <text x="45" y="262.5" text-anchor="end" dy="0.35em" class="label">4</text>
  <text x="45" y="281.25" text-anchor="end" dy="0.35em" class="label">3</text>
  <text x="45" y="300" text-anchor="end" dy="0.35em" class="label">2</text>
  <text x="45" y="318.75" text-anchor="end" dy="0.35em" class="label">1</text>

  <!-- Etiqueta del eje X -->
  <!-- 425 porque todo el eje x tiene 750 (25x10 + 50x10), lo divido por 2 y nos da 375. Luego le sumamos 50
       porque arranca desde ahi y termina quedando 425-->
    <!-- +40X -->
  <text x="25" y="190.625" text-anchor="middle" transform="rotate(-90 25,190.625)" class="label">Longitud de palabras (en letras)</text>
</svg>